<svg width="117" height="42" viewBox="0 0 125 50" fill="none" xmlns="http://www.w3.org/2000/svg">
<path d="M28.9034 40.7987L28.5911 38.8219L26.6146 39.1355C24.2649 39.5083 21.5631 39.6999 18.4994 39.6999C15.2315 39.6999 13.5754 38.9586 12.8158 38.0878C11.9959 37.1479 11.3047 34.9669 11.3047 30.8612C11.3047 26.8005 11.9941 24.6354 12.8158 23.6934C13.5754 22.8226 15.2315 22.0814 18.4994 22.0814C21.0321 22.0814 23.5651 22.1964 26.0986 22.4266L27.8881 22.5892L28.2407 20.8272L28.889 17.5874L29.2223 15.9222L27.6332 15.3234C24.931 14.3052 21.584 13.8401 17.6742 13.8401C12.4673 13.8401 8.24299 14.9953 5.60064 17.8354L5.59418 17.8424L5.58778 17.8494C3.02247 20.6597 2 25.1944 2 30.8612C2 36.5332 3.02467 41.0748 5.57617 43.919L5.58828 43.9325L5.60064 43.9458C8.24058 46.7833 12.4419 47.9411 17.6153 47.9411C21.5186 47.9411 25.0294 47.4284 28.1141 46.3579L29.695 45.8093L29.4339 44.1563L28.9034 40.7987ZM49.9475 23.5986L49.9572 23.6112L49.9671 23.6236C50.3132 24.0588 50.6782 24.8242 50.947 26.0811C51.2126 27.3224 51.3596 28.9247 51.3596 30.9201C51.3596 32.9154 51.2126 34.5177 50.947 35.759C50.6782 37.0159 50.3132 37.7813 49.9671 38.2165L49.9572 38.229L49.9475 38.2416C49.3336 39.0392 47.9595 39.7588 45.049 39.7588C42.1384 39.7588 40.7643 39.0392 40.1504 38.2416C39.8149 37.8057 39.4594 37.0357 39.1978 35.772C38.9397 34.5253 38.7973 32.9183 38.7973 30.9201C38.7973 28.9219 38.9397 27.3148 39.1978 26.0681C39.4594 24.8044 39.8149 24.0344 40.1504 23.5986C40.7643 22.8009 42.1384 22.0814 45.049 22.0814C47.9595 22.0814 49.3336 22.8009 49.9475 23.5986ZM92.0419 4V2H90.0419H85.0319H83.0319V4V12.8359C83.0319 13.6624 83.0445 14.4661 83.0697 15.2468C80.5664 14.3068 77.8952 13.8401 75.0709 13.8401C70.8933 13.8401 67.4527 15.1191 65.2312 18.0408C63.0795 20.8319 62.2258 25.257 62.2258 30.8022C62.2258 36.044 63.0203 40.3043 64.8878 43.2905L64.8975 43.306L64.9075 43.3214C66.9647 46.4806 70.2464 47.9411 74.3047 47.9411C77.7342 47.9411 81.0022 46.8683 84.0939 44.8418L84.1647 45.4614L84.3675 47.2342H86.1518H90.0419H92.0419V45.2342V4ZM123 41.1697V39.1697H121H106.816L122.308 22.0107L122.823 21.4397V20.6704V16.547V14.547H120.823H96.8933H94.8933V16.547V20.6704V22.6704H96.8933H110.674L95.2298 39.8318L94.7164 40.4023V41.1697V45.2342V47.2342H96.7164H121H123V45.2342V41.1697ZM56.9768 17.9285C54.4089 15.0156 50.217 13.8401 45.049 13.8401C39.9052 13.8401 35.7281 15.0223 33.1277 17.9211C30.5779 20.7635 29.5515 25.2827 29.5515 30.9201C29.5515 36.5574 30.5779 41.0766 33.1277 43.919C35.7281 46.8178 39.9052 48 45.049 48C50.2168 48 54.4086 46.8245 56.9765 43.9119C59.5217 41.0691 60.5464 36.5527 60.5464 30.9201C60.5464 25.2876 59.5218 20.7713 56.9768 17.9285ZM76.2497 22.1992C77.8087 22.1992 80.0491 22.5501 83.0319 23.321V36.589C81.3703 37.7261 80.093 38.4987 79.1756 38.945C78.2504 39.3583 77.1874 39.5821 75.955 39.5821C74.0208 39.5821 73.0515 38.9977 72.5075 38.1993C71.8606 37.1413 71.3537 34.8171 71.3537 30.7433C71.3537 28.7533 71.4778 27.155 71.7041 25.92C71.935 24.6596 72.2474 23.9199 72.5222 23.529C73.0232 22.8165 74.0427 22.1992 76.2497 22.1992Z" stroke="#FF9966" stroke-width="4"/>
</svg>
